<svg xmlns="http://www.w3.org/2000/svg" version="1.1" width="549" height="455">
<path d="M0 0 C0.99109333 -0.00262956 0.99109333 -0.00262956 2.00220874 -0.00531223 C4.23182995 -0.00999023 6.46138647 -0.00750213 8.69101048 -0.00507832 C10.29942156 -0.00694538 11.90783218 -0.00924566 13.51624209 -0.01194364 C17.94836053 -0.01808092 22.38046017 -0.01792579 26.8125819 -0.01674926 C31.58770438 -0.01654574 36.36282075 -0.02205932 41.13794041 -0.02680683 C50.4975562 -0.03512432 59.8571657 -0.03786216 69.21678489 -0.03841921 C76.82156268 -0.03889382 84.42633839 -0.04094579 92.03111553 -0.04411983 C113.57476557 -0.05292913 135.11841061 -0.05753874 156.66206246 -0.05678936 C158.40533422 -0.05672943 158.40533422 -0.05672943 160.18382359 -0.05666828 C161.3474176 -0.0566274 162.51101161 -0.05658652 163.70986605 -0.0565444 C182.57630584 -0.05613777 201.44272568 -0.06571083 220.30915969 -0.07980665 C239.6641278 -0.0941538 259.01908617 -0.10107776 278.37405974 -0.10021287 C289.24725534 -0.09988034 300.12043004 -0.10265182 310.99362087 -0.11339092 C320.24975917 -0.12247408 329.50586707 -0.12468921 338.76200788 -0.1178815 C343.48749234 -0.1146053 348.21291842 -0.11459905 352.93839741 -0.12323475 C357.26049404 -0.13105229 361.58248555 -0.12971733 365.90457947 -0.12095062 C367.47184581 -0.1194051 369.03911981 -0.12127097 370.60637712 -0.12681069 C372.72993681 -0.13382223 374.85312273 -0.1286158 376.97666931 -0.12025452 C378.74904281 -0.12058057 378.74904281 -0.12058057 380.55722183 -0.12091321 C383.47815382 0.12254157 385.12343368 0.53399929 387.55125523 2.12863445 C391.27549779 7.34942847 393.19809652 13.79772643 395.26609898 19.8122282 C398.57908361 29.31972696 402.146319 38.72392105 405.73875523 48.12863445 C406.96357608 51.33614807 408.18582436 54.54462655 409.40672398 57.75363445 C409.6786507 58.46318279 409.95057743 59.17273113 410.23074436 59.90378094 C417.34457392 78.6017495 417.34457392 78.6017495 413.92625523 86.25363445 C411.12892536 91.31827379 407.8952856 94.31959677 402.31523073 96.24554223 C398.44801356 97.15285669 395.10747883 97.38040523 391.14014721 97.38311005 C390.42396135 97.38631652 389.70777548 97.389523 388.96988702 97.39282665 C386.57559154 97.40111273 384.18154712 97.3952073 381.78724766 97.38933086 C380.05107788 97.39235218 378.31490943 97.39624157 376.57874334 97.40092343 C371.81184879 97.41121469 367.04502936 97.40901873 362.27812862 97.40474284 C357.13555558 97.40227767 351.99300071 97.41128718 346.8504343 97.41878033 C336.77713724 97.43153515 326.70386682 97.43332004 316.63056304 97.43098006 C308.44335112 97.42919763 300.2561473 97.43094495 292.06893635 97.43520451 C290.32161613 97.43609729 290.32161613 97.43609729 288.53899651 97.43700811 C286.17260183 97.43821985 283.80620715 97.43943398 281.43981247 97.44065049 C259.24347297 97.45152903 237.04714866 97.44936203 214.85080831 97.44326564 C194.54272141 97.43809616 174.23468247 97.4493522 153.92660506 97.46836386 C133.07647665 97.48773341 112.22637093 97.49599981 91.37623346 97.49224061 C79.66959039 97.49032723 67.96298816 97.49282946 56.25635242 97.50695515 C46.29044431 97.51885865 36.32460215 97.52028539 26.35869314 97.50816498 C21.27406759 97.50226909 16.18956275 97.50119655 11.10494518 97.51316738 C6.44901206 97.52400157 1.79330078 97.52095215 -2.86262186 97.5069057 C-4.54560322 97.50425198 -6.22860184 97.50664645 -7.9115663 97.51464156 C-26.98339258 97.598945 -26.98339258 97.598945 -33.56983852 92.48019695 C-38.17620921 86.43860692 -40.12298626 81.91313869 -39.44874477 74.12863445 C-38.64951093 71.46452165 -37.82056896 69.05158285 -36.76124477 66.50363445 C-36.20799999 65.10695855 -35.65593938 63.70981305 -35.10499477 62.3122282 C-34.82655727 61.61597332 -34.54811977 60.91971844 -34.26124477 60.20236492 C-32.59492787 55.94945153 -31.13075112 51.62386225 -29.62452602 47.3122282 C-28.81112579 45.10983221 -27.92687384 42.93279651 -26.98780727 40.7809782 C-25.25350969 36.66532277 -23.87510864 32.50249157 -22.51124477 28.25363445 C-20.67775169 22.63984305 -18.7904618 17.15613083 -16.24561977 11.81613445 C-15.34050859 9.97183113 -15.34050859 9.97183113 -14.44874477 7.31613445 C-13.21268088 4.61224467 -11.70688617 3.04463322 -9.44874477 1.12863445 C-6.08128761 0.00614873 -3.55046738 0.00211698 0 0 Z M145.64631748 48.00078106 C143.4310404 52.30536268 141.46129184 56.68009757 139.55125523 61.12863445 C139.21352085 61.89433758 138.87578648 62.6600407 138.52781773 63.44894695 C136.90601793 67.36209693 136.07434598 70.06713402 137.55125523 74.12863445 C139.46640247 76.0437817 142.31219626 75.26203792 144.86155796 75.27527142 C145.76962193 75.27481823 146.67768589 75.27436504 147.61326694 75.27389812 C148.56444401 75.27725674 149.51562107 75.28061535 150.49562168 75.28407574 C153.65740845 75.29361778 156.81914243 75.29553054 159.98094273 75.2966032 C162.16951107 75.29981375 164.35807919 75.30317766 166.54664707 75.30668926 C171.14177543 75.31268884 175.73688495 75.31452834 180.33201694 75.31393719 C186.22933871 75.31383557 192.12654006 75.3274838 198.02383327 75.3447094 C202.54646964 75.35581153 207.06907675 75.35785694 211.59172535 75.35732746 C213.76629775 75.35851043 215.94087083 75.36294985 218.11542988 75.37065983 C221.15385785 75.38042281 224.19202251 75.37759617 227.23045444 75.37155437 C228.13446995 75.37717388 229.03848545 75.38279339 229.96989536 75.38858318 C230.79716129 75.38438869 231.62442722 75.38019421 232.47676182 75.37587261 C233.19538332 75.37641738 233.91400482 75.37696215 234.65440273 75.37752342 C236.88177257 75.22732343 236.88177257 75.22732343 239.55125523 73.12863445 C238.45175771 64.9851034 234.54398404 52.12136327 228.55125523 46.12863445 C226.04211931 46.01233342 223.56012413 45.96064336 221.04979038 45.9516325 C220.26442402 45.9450613 219.47905766 45.9384901 218.66989231 45.93171978 C216.06003327 45.91194101 213.45023185 45.90031465 210.84031773 45.8903532 C209.95134171 45.88627768 209.06236568 45.88220215 208.146451 45.87800312 C203.44219537 45.85712375 198.73796909 45.84282963 194.0336771 45.83346844 C189.16527994 45.82239443 184.29733867 45.78798865 179.4291029 45.74829674 C175.69395672 45.72219931 171.95892033 45.71378279 168.22369099 45.71018696 C166.42867927 45.70530387 164.63367299 45.69364124 162.83874989 45.67514896 C160.32929819 45.65090065 157.82104115 45.65169572 155.31150913 45.65866375 C154.19392971 45.63944866 154.19392971 45.63944866 153.05377293 45.61984539 C148.90890078 45.6520213 148.90890078 45.6520213 145.64631748 48.00078106 Z " fill="#1e2939" transform="translate(86.44874477386475,308.8713655471802)"/>
<path d="M0 0 C1.30966169 -0.00521549 2.61932339 -0.01043099 3.9686718 -0.01580453 C5.42042978 -0.0114805 6.87218722 -0.00696719 8.32394409 -0.002285 C9.86737274 -0.00458923 11.41080029 -0.00776549 12.95422554 -0.01173949 C17.19749411 -0.02010142 21.44067291 -0.01595588 25.68394184 -0.00976706 C30.25932237 -0.00524929 34.83468726 -0.01222297 39.4100647 -0.0177269 C48.3740413 -0.02662976 57.33798445 -0.02469491 66.30196238 -0.01890162 C73.5858427 -0.01438865 80.86971365 -0.01377064 88.15359497 -0.01594925 C89.70739103 -0.01640895 89.70739103 -0.01640895 91.29257691 -0.01687793 C93.39677859 -0.01751737 95.50098026 -0.0181658 97.60518193 -0.01882312 C117.34587174 -0.02452903 137.08654298 -0.01796442 156.82722974 -0.00722238 C173.77324669 0.00171336 190.71923623 0.00016139 207.66525269 -0.00905991 C227.33431131 -0.01975792 247.00335365 -0.02397968 266.67241478 -0.01783538 C268.7689654 -0.01719827 270.86551602 -0.01656953 272.96206665 -0.01594925 C273.99366539 -0.0156407 275.02526413 -0.01533215 276.08812344 -0.01501425 C283.36499682 -0.0132859 290.6418599 -0.01620541 297.91873169 -0.02090836 C306.78429823 -0.02651199 315.64982935 -0.02501166 324.51539183 -0.01434687 C329.04051126 -0.00908318 333.56557159 -0.00704527 338.09069061 -0.01364517 C342.23080706 -0.01959231 346.37080945 -0.01634999 350.51091552 -0.00569007 C352.01084395 -0.00345079 353.51078197 -0.00460412 355.01070428 -0.00944164 C357.04568347 -0.01550279 359.08068954 -0.00810391 361.11566162 0 C362.24717588 0.0003247 363.37869015 0.00064941 364.54449272 0.00098395 C370.49755534 0.49625624 373.69649675 2.76418594 377.55783081 7.25168228 C380.2591954 12.14208819 380.01157568 17.46210733 380.17770386 22.90939713 C380.23421757 24.50055879 380.23421757 24.50055879 380.29187298 26.12386513 C380.6866968 38.32443636 380.67839547 50.5227884 380.63986206 62.72824478 C380.6352919 65.31016358 380.63105602 67.89208299 380.62712097 70.47400284 C380.61627682 76.80700517 380.59878977 83.13997371 380.57873732 89.47295296 C380.56168134 94.87864328 380.54722707 100.28433621 380.53384399 105.69003677 C380.48715047 124.16001046 380.41891015 142.6297667 380.32209587 161.09954834 C380.27659353 169.8327035 380.23709762 178.56580755 380.21139526 187.29904556 C380.18843963 195.09820507 380.15517333 202.89723761 380.10912925 210.69629633 C380.08537105 214.77456463 380.06652308 218.85270976 380.0602169 222.93104553 C380.05418554 226.71578657 380.0342584 230.50019785 380.0035553 234.28481674 C379.99477939 235.66589828 379.99105158 237.04702282 379.99282265 238.4281311 C379.99447886 240.31461447 379.97598763 242.20108316 379.95655823 244.08746719 C379.95194926 245.13965628 379.9473403 246.19184536 379.94259167 247.27591896 C379.28936762 252.32799257 377.30990199 255.4996111 373.74533081 259.06418228 C368.79496108 262.46149484 363.95453853 262.37653773 358.07628727 262.38311005 C356.7832849 262.38695119 355.49028254 262.39079234 354.15809828 262.39474988 C352.73031233 262.39396973 351.30252643 262.39309096 349.8747406 262.39212418 C348.35249902 262.39470919 346.83025812 262.39772273 345.30801815 262.40112758 C341.12790439 262.40918445 336.94780781 262.41098641 332.7676872 262.41172504 C328.25840952 262.41357781 323.74914071 262.42112612 319.23986816 262.42786026 C309.38263103 262.4414333 299.52539797 262.44746628 289.66815305 262.45187092 C283.51409332 262.45463426 277.36003516 262.4588717 271.20597649 262.46337509 C254.16826889 262.47556486 237.13056255 262.48586576 220.09285069 262.48925018 C218.45773535 262.48957953 218.45773535 262.48957953 216.78958737 262.48991553 C215.69690838 262.49013381 214.60422939 262.49035209 213.47843891 262.49057698 C211.2642616 262.49102045 209.05008429 262.49146701 206.83590698 262.49191666 C205.18844548 262.4922488 205.18844548 262.4922488 203.50770193 262.49258766 C185.70074632 262.49653792 167.89383159 262.5140002 150.08689178 262.53727618 C131.80645579 262.5609784 113.52604033 262.57345147 95.24558872 262.5746181 C84.98098488 262.57553533 74.71643434 262.58129999 64.45184517 262.59943771 C55.71407995 262.61482323 46.9763845 262.61996821 38.23860831 262.61169961 C33.78003515 262.60778804 29.32160258 262.60874752 24.86304665 262.62275696 C20.78142124 262.63546495 16.70004252 262.63432579 12.61841761 262.62216625 C11.142033 262.6202039 9.6656311 262.62331248 8.1892708 262.63201061 C-7.11121339 262.71644692 -7.11121339 262.71644692 -14.25466919 257.00168228 C-18.87236753 251.1965758 -18.73334757 244.72052782 -18.7028656 237.61142349 C-18.70669115 236.65891378 -18.71051669 235.70640407 -18.71445817 234.72503042 C-18.72475175 231.54310253 -18.72080294 228.36135632 -18.71682739 225.17941666 C-18.72117582 222.89420276 -18.72635941 220.60899033 -18.73231506 218.32378006 C-18.74570078 212.12349264 -18.74628429 205.9232662 -18.74375176 199.72296715 C-18.74268197 194.54633198 -18.74756554 189.36970914 -18.75235718 184.19307661 C-18.76408457 171.28396936 -18.76322808 158.37490103 -18.75680038 145.46579212 C-18.75162975 134.26120779 -18.76289193 123.05671037 -18.7818986 111.85214323 C-18.80127994 100.33818016 -18.80924121 88.82426849 -18.80577534 77.31028795 C-18.80396147 70.84965639 -18.80660939 64.38910446 -18.82048988 57.92848587 C-18.83305155 51.85457117 -18.83113972 45.78083069 -18.81807899 39.70691872 C-18.81571022 37.47807316 -18.81845862 35.2492154 -18.82670212 33.02038383 C-18.83714537 29.97736678 -18.82908808 26.93493695 -18.81639099 23.89194107 C-18.82376528 23.01051485 -18.83113956 22.12908862 -18.83873731 21.22095251 C-18.77907525 14.42191439 -17.25468548 9.97045672 -13.44216919 4.25168228 C-12.78216919 4.25168228 -12.12216919 4.25168228 -11.44216919 4.25168228 C-11.44216919 3.59168228 -11.44216919 2.93168228 -11.44216919 2.25168228 C-7.48494738 0.39460199 -4.35502091 0.00124974 0 0 Z M7.55783081 26.25168228 C7.55783081 95.55168228 7.55783081 164.85168228 7.55783081 236.25168228 C122.06783081 236.25168228 236.57783081 236.25168228 354.55783081 236.25168228 C354.55783081 166.95168228 354.55783081 97.65168228 354.55783081 26.25168228 C240.04783081 26.25168228 125.53783081 26.25168228 7.55783081 26.25168228 Z " fill="#1e2939" transform="translate(93.44216918945313,45.74831771850586)"/>
<path d="M0 0 C0.66 0.33 1.32 0.66 2 1 C1.67 2.65 1.34 4.3 1 6 C-0.3921875 6.37125 -0.3921875 6.37125 -1.8125 6.75 C-5.16458325 8.06454245 -6.1877803 8.97963384 -8 12 C-8.125 9.125 -8.125 9.125 -8 6 C-7.34 5.34 -6.68 4.68 -6 4 C-4.68 4 -3.36 4 -2 4 C-2 3.01 -2 2.02 -2 1 C-1.34 0.67 -0.68 0.34 0 0 Z " fill="#535A66" transform="translate(85,48)"/>
<path d="M0 0 C1.32 0.33 2.64 0.66 4 1 C4 1.99 4 2.98 4 4 C3.01 4 2.02 4 1 4 C1 4.66 1 5.32 1 6 C0.34 6 -0.32 6 -1 6 C-1.33 5.01 -1.66 4.02 -2 3 C-1.34 2.01 -0.68 1.02 0 0 Z " fill="#6F7883" transform="translate(81,298)"/>
<path d="M0 0 C3.42054006 1.14018002 4.2426201 1.92458518 6 5 C5.6875 7.25 5.6875 7.25 5 9 C4.34 7.68 3.68 6.36 3 5 C1.68 5 0.36 5 -1 5 C-0.67 3.35 -0.34 1.7 0 0 Z " fill="#A4A9B0" transform="translate(466,49)"/>
<path d="M0 0 C2.89932357 2.39509338 3.50168276 4.31245243 4 8 C3.34 7.67 2.68 7.34 2 7 C2 6.34 2 5.68 2 5 C0.68 5.33 -0.64 5.66 -2 6 C-2 5.01 -2 4.02 -2 3 C-1.34 2.67 -0.68 2.34 0 2 C0 1.34 0 0.68 0 0 Z " fill="#8F959D" transform="translate(474,313)"/>
<path d="M0 0 C0.99 0 1.98 0 3 0 C1.62845496 2.95409701 0.01136276 5.44008376 -2 8 C-2.125 5.125 -2.125 5.125 -2 2 C-1.34 1.34 -0.68 0.68 0 0 Z " fill="ffff" transform="translate(79,52)"/>
<path d="M0 0 C0.93065133 2.60582371 1.14917407 3.64198224 0.0625 6.25 C-0.4634375 7.11625 -0.4634375 7.11625 -1 8 C-1.66 8 -2.32 8 -3 8 C-1.125 1.125 -1.125 1.125 0 0 Z " fill="#969AA2" transform="translate(74,313)"/>
</svg>